PathFileType	4	(X/Y/Z)	 s03c0301.trc
DataRate	CameraRate	NumFrames	NumMarkers	Units	OrigDataRate	OrigDataStartFrame	OrigNumFrames
200	200	4	52	mm	200	1501	2000
Frame#	Time	racr			lacr			c7			jug			rlel			rdr			llel			ldr			s2			lic			ric			lasi			rasi			rpsi			lpsi			rgt			lgt			rth1			rth2			rth3			rth4			rlfc			rmfc			rsh1			rsh2			rsh3			rsh4			rlmal			rmmal			rcal			rtoe			rmt5			rmt1			lth1			lth2			lth4			lth3			llfc			lmfc			lsh1			lsh2			lsh3			lsh4			llmal			lmmal			lcal			ltoe			lmt1			lmt5			SBIKE			LBIKE			RBIKE			
		X1	Y1	Z1	X2	Y2	Z2	X3	Y3	Z3	X4	Y4	Z4	X5	Y5	Z5	X6	Y6	Z6	X7	Y7	Z7	X8	Y8	Z8	X9	Y9	Z9	X10	Y10	Z10	X11	Y11	Z11	X12	Y12	Z12	X13	Y13	Z13	X14	Y14	Z14	X15	Y15	Z15	X16	Y16	Z16	X17	Y17	Z17	X18	Y18	Z18	X19	Y19	Z19	X20	Y20	Z20	X21	Y21	Z21	X22	Y22	Z22	X23	Y23	Z23	X24	Y24	Z24	X25	Y25	Z25	X26	Y26	Z26	X27	Y27	Z27	X28	Y28	Z28	X29	Y29	Z29	X30	Y30	Z30	X31	Y31	Z31	X32	Y32	Z32	X33	Y33	Z33	X34	Y34	Z34	X35	Y35	Z35	X36	Y36	Z36	X37	Y37	Z37	X38	Y38	Z38	X39	Y39	Z39	X40	Y40	Z40	X41	Y41	Z41	X42	Y42	Z42	X43	Y43	Z43	X44	Y44	Z44	X45	Y45	Z45	X46	Y46	Z46	X47	Y47	Z47	X48	Y48	Z48	X49	Y49	Z49	X50	Y50	Z50	X51	Y51	Z51	X52	Y52	Z52	
1501	7.5050	703.671350	1404.764099	-80.366522	648.640009	1443.698058	-388.449158	627.090213	1511.826704	-218.056613	609.897423	1334.062602	-227.742321	613.617453	1162.783694	63.158947	742.736586	932.398159	-26.563407	573.014091	1181.811627	-488.697604	730.569984	939.333229	-407.592756	69.337078	1311.270771	-158.440793	220.918515	1347.084081	-357.300359	263.631467	1286.122156	-0.864423	239.826114	1267.571666	-326.082767	273.091693	1223.371317	-57.520117	110.884974	1349.399574	-107.794281	104.482102	1362.773245	-189.809406	173.580487	1180.295358	8.173801	173.693775	1265.083714	-383.025802	207.385515	1027.820446	12.639843	254.796769	952.703521	6.683214	261.055831	867.931045	-5.118340	288.182874	965.093457	-3.369431	283.870184	745.554608	-41.811343	285.796435	733.727038	-159.684586	211.540752	596.300456	-17.503545	198.727667	509.368077	-33.253551	143.902205	440.007593	-36.184942	226.426798	500.391035	-57.987392	82.509199	325.843862	-60.334634	110.471661	329.278398	-139.564423	13.546964	320.177847	-95.586265	273.294128	149.699122	-113.541114	165.765461	195.565287	-38.848509	193.907017	201.854267	-153.277822	274.818763	1157.575716	-422.057694	353.023726	1122.487123	-435.735154	376.627648	1148.323364	-424.148943	404.019736	1049.853860	-446.852587	516.474643	968.419826	-442.509071	530.428331	949.380973	-313.590053	414.054352	825.874775	-456.430792	387.433971	745.865001	-436.781001	319.711560	686.282541	-428.785301	415.112520	729.999889	-414.901583	248.006423	580.508374	-408.225160	283.538850	591.739558	-319.122931	172.937292	547.106972	-361.112605	473.691774	477.409368	-350.952666	378.802071	490.848656	-310.128563	355.061123	477.111986	-426.502073	-212.038237	946.964800	-227.569886	-4.572301	84.275574	-432.879415	-9.240845	81.353904	-32.404255	
1502	7.5100	704.144950	1405.066744	-80.737882	649.207999	1443.277321	-388.738779	628.060844	1512.053181	-218.532568	609.965903	1334.351732	-227.729364	614.027672	1163.132361	62.507265	741.742812	931.728398	-27.477103	571.254350	1181.710519	-488.014491	730.475970	939.707335	-407.426838	69.417525	1314.108923	-160.272650	222.462260	1348.298950	-358.551307	262.492462	1289.331045	-1.085781	240.227175	1269.310738	-326.634036	272.008971	1226.202860	-56.932142	111.598539	1352.327340	-110.907001	105.109119	1365.537923	-192.219676	172.633638	1184.132999	7.880204	174.208423	1265.452670	-383.730125	209.523276	1031.088774	12.516535	258.438566	956.922368	6.566256	266.422207	872.280626	-4.668580	291.490615	969.818922	-3.524414	290.361701	749.676896	-39.752770	292.391760	737.303035	-157.655838	213.502035	601.878809	-16.108542	198.645521	515.343636	-31.860953	141.639969	447.629555	-35.615482	225.915142	505.852690	-56.614719	77.495374	334.942245	-60.730300	106.361510	337.935683	-139.740976	8.603547	330.248105	-96.682901	264.641698	154.260624	-113.216964	157.954491	202.664077	-39.041430	186.577318	207.866668	-153.647480	273.999866	1156.148075	-421.903977	351.791465	1120.069511	-434.996100	375.659922	1145.874169	-423.756347	401.867627	1046.652108	-444.766996	513.937079	964.315717	-439.992388	527.659497	945.807188	-311.249789	414.157205	819.821309	-454.999626	389.151392	739.284906	-435.769217	322.443731	678.550780	-428.577315	417.377843	723.985102	-414.282831	253.140629	570.896191	-408.093362	288.132741	582.698228	-318.733074	178.570072	535.585198	-361.287271	481.069792	473.493051	-351.018429	385.816060	484.518561	-310.342651	362.134159	470.593574	-427.668086	-211.950666	947.009212	-227.675732	-4.588871	84.273504	-432.884152	-9.238954	81.369618	-32.386919	
1503	7.5150	704.477522	1405.464428	-81.101823	649.893975	1442.832574	-388.965430	628.978977	1512.329090	-218.991811	610.023609	1334.692938	-227.723201	614.434271	1163.547047	61.790346	741.810635	931.665454	-27.502239	569.749413	1181.569713	-487.267502	730.334867	939.962684	-407.014337	69.655226	1316.823659	-162.260129	224.012792	1349.202251	-359.772342	261.216745	1292.645439	-1.262388	240.710823	1269.921420	-327.184927	271.173750	1229.151042	-56.164712	111.432650	1355.166081	-112.542796	105.773110	1367.885022	-194.950908	171.734304	1187.945217	7.485235	174.729828	1265.350789	-384.392870	211.990754	1034.527481	12.358064	262.348294	961.448475	6.751153	271.768565	876.949065	-4.041746	295.009443	974.794731	-3.312581	297.288624	753.969770	-37.855245	299.441292	741.013810	-155.673626	215.826211	607.825458	-14.616921	198.528645	521.892229	-30.998596	140.017632	455.578999	-35.028144	226.004694	511.536526	-55.387415	73.208463	344.396557	-60.854276	102.897133	346.898533	-139.738305	4.339694	340.837958	-97.385703	256.518857	159.513103	-112.978192	150.750291	209.992690	-39.279101	179.735638	214.492693	-153.880433	273.117945	1154.260701	-421.727651	350.438751	1117.076486	-434.332910	374.594978	1142.669113	-423.477981	399.614291	1042.898435	-442.988986	511.082708	959.559092	-437.395227	524.700241	941.279858	-309.211868	414.179037	813.262393	-453.708007	390.852784	732.086042	-434.706494	325.579706	669.626140	-427.359834	419.317437	717.229174	-413.045360	258.319234	560.757395	-408.059842	292.703207	572.791958	-318.310973	183.951908	523.862376	-361.618030	487.928947	468.420501	-351.016449	392.519240	477.589616	-310.520454	369.186208	463.045456	-427.937014	-211.870843	947.055226	-227.830154	-4.566017	84.262259	-432.913395	-9.244313	81.411291	-32.402135	
1504	7.5200	704.717606	1405.778163	-81.471105	650.599038	1442.441672	-389.244601	629.901167	1512.660295	-219.407770	609.956516	1335.114466	-227.784475	614.725681	1163.841744	61.134293	741.838490	931.624409	-27.513805	568.485640	1181.379955	-486.537578	730.243605	940.155173	-406.538185	69.954722	1319.383606	-164.520015	225.657515	1349.762318	-361.214374	259.932865	1295.911843	-1.510757	241.125080	1270.404872	-327.895626	270.109011	1231.480527	-55.487165	111.338299	1357.791903	-114.411126	106.296705	1370.156931	-197.578219	170.989114	1191.675781	7.041950	175.267429	1264.846317	-385.033002	214.618256	1038.069361	12.363059	266.602539	966.058333	6.840505	277.794233	881.733260	-3.178234	299.116094	979.863755	-3.593217	304.478902	758.501873	-35.828975	306.841796	744.810510	-153.664250	218.670322	613.867926	-13.207224	199.108349	528.513551	-29.894764	138.921962	463.798675	-34.332597	226.419994	517.513403	-54.059394	69.548597	354.238128	-60.558077	99.451920	356.402199	-139.356698	0.758075	351.905451	-97.768740	248.822584	164.946004	-112.790039	143.989187	217.783036	-39.280792	173.180316	221.539636	-154.095044	272.212597	1151.910089	-421.484675	348.991544	1113.677594	-433.951199	373.536565	1138.916325	-423.175135	397.148824	1038.547188	-441.162917	507.948603	954.187875	-434.783560	521.485074	936.327207	-307.047167	414.180582	806.004811	-452.119027	392.538381	724.279691	-433.451774	328.568136	660.691562	-427.057655	421.228467	710.062135	-411.684542	263.450056	550.268953	-408.328613	297.175025	562.746767	-317.845534	189.414465	511.888224	-361.813825	494.566980	462.718509	-351.165647	398.895581	470.095156	-310.662170	376.032078	454.611721	-427.627281	-211.783270	947.078612	-227.928252	-4.554099	84.273660	-432.914788	-9.217604	81.425859	-32.408644	
